<?xml version="1.0" standalone="no"?>
<!DOCTYPE svg PUBLIC "-//W3C//DTD SVG 20010904//EN"
 "http://www.w3.org/TR/2001/REC-SVG-20010904/DTD/svg10.dtd">
<svg version="1.0" xmlns="http://www.w3.org/2000/svg"
 width="450.000000pt" height="250.000000pt" viewBox="0 0 450.000000 250.000000"
 preserveAspectRatio="xMidYMid meet">
<metadata>
Created by potrace 1.16, written by Peter Selinger 2001-2019
</metadata>
<g transform="translate(0.000000,250.000000) scale(0.100000,-0.100000)"
fill="#000000" stroke="none">
<path d="M850 2440 l30 -60 -28 -102 -29 -103 -313 -3 c-211 -1 -318 -6 -327
-13 -18 -16 -20 -1778 -1 -1797 7 -7 39 -12 76 -12 56 0 63 -2 58 -17 -38
-135 -86 -315 -86 -325 1 -29 18 23 60 180 l43 162 772 0 772 0 83 -172 c90
-189 87 -184 96 -176 3 4 0 16 -6 28 -10 18 -9 25 1 32 11 8 11 9 -2 5 -11 -4
-21 6 -31 29 -8 18 -11 31 -7 28 5 -3 9 0 9 5 0 6 -7 11 -15 11 -8 0 -15 9
-15 19 0 11 -6 22 -12 24 -10 4 -10 8 1 15 8 6 9 12 3 16 -6 3 -12 1 -14 -4
-2 -6 -11 5 -19 24 -9 20 -13 36 -8 36 5 0 9 5 9 11 0 6 -7 9 -15 5 -10 -4
-15 1 -15 14 0 11 -4 20 -10 20 -5 0 -10 5 -10 10 0 7 230 10 698 10 517 -1
696 2 694 10 -1 7 6 14 17 17 20 5 25 52 6 65 -6 5 -5 8 3 8 6 0 12 7 12 15 0
8 4 15 10 15 5 0 7 -7 4 -15 -4 -9 0 -15 10 -15 10 0 15 8 13 23 -1 16 3 21
16 19 19 -3 23 14 5 21 -10 4 -10 6 0 6 6 1 12 8 12 16 0 8 -6 15 -12 15 -9 0
-8 4 2 10 13 9 13 11 0 20 -10 6 -11 10 -2 10 6 0 12 7 12 15 0 8 -6 15 -12
15 -9 0 -8 4 2 10 13 9 13 11 0 20 -10 6 -11 10 -2 10 6 0 12 7 12 15 0 8 -6
15 -12 15 -9 0 -8 4 2 10 13 9 13 11 0 20 -10 6 -11 10 -2 10 6 0 12 7 12 15
0 8 -6 15 -12 15 -9 0 -8 4 2 11 11 8 12 12 3 16 -7 2 -13 9 -13 14 0 6 5 7
10 4 5 -3 10 0 10 9 0 8 -6 17 -12 19 -10 4 -10 6 0 6 6 1 12 8 12 17 0 8 -5
12 -10 9 -6 -4 -10 7 -10 24 0 17 4 31 8 31 5 0 47 31 94 69 l86 70 -10 -37
c-5 -20 -16 -42 -24 -48 -8 -7 -14 -16 -13 -20 5 -32 -3 -54 -20 -54 -14 0
-18 -7 -18 -32 0 -66 -3 -78 -18 -78 -8 0 -15 -4 -15 -10 0 -5 6 -10 13 -10 9
0 9 -2 0 -8 -7 -4 -12 -21 -11 -37 2 -74 -1 -83 -22 -78 -11 3 -20 0 -20 -6 0
-6 7 -11 15 -11 8 0 15 -5 15 -11 0 -5 -4 -8 -9 -4 -5 3 -12 1 -15 -4 -4 -5
-1 -13 5 -17 8 -4 7 -9 -2 -16 -11 -7 -11 -11 -1 -15 6 -2 9 -10 5 -16 -8 -13
-9 -17 -12 -62 -2 -16 -5 -24 -8 -17 -7 17 -23 15 -23 -3 0 -8 6 -15 13 -15 8
0 8 -3 1 -8 -6 -4 -10 -20 -10 -37 0 -50 -14 -116 -24 -110 -5 3 -11 1 -14 -4
-4 -5 -1 -13 5 -17 8 -4 7 -9 -2 -16 -11 -7 -11 -11 -1 -15 6 -2 9 -10 5 -16
-8 -13 -9 -19 -11 -59 -1 -15 -8 -33 -14 -40 -15 -15 -21 -118 -7 -118 5 0 9
8 9 18 0 9 14 78 30 151 17 74 41 186 55 250 36 168 33 161 65 155 56 -12 147
49 184 124 l17 32 123 0 c67 0 164 3 213 6 87 7 91 6 98 -15 9 -31 62 -89 95
-106 15 -8 46 -16 69 -17 l41 -3 29 -90 c48 -147 119 -377 131 -422 6 -24 13
-43 15 -43 10 0 2 276 -9 282 -8 6 -7 8 2 8 6 0 12 6 12 14 0 8 -15 16 -37 20
-21 3 -44 10 -51 14 -12 8 -112 316 -112 347 0 31 61 133 116 194 l54 59 -57
34 c-66 39 -78 66 -64 143 18 97 114 303 139 298 8 -2 12 11 12 37 0 35 -3 40
-24 40 -21 0 -23 4 -19 36 3 26 0 35 -9 32 -8 -3 -12 -16 -10 -31 4 -33 -10
-35 -24 -4 -6 12 -9 16 -7 10 3 -14 -16 -17 -41 -7 -9 3 -14 10 -11 14 3 5 0
12 -6 16 -6 3 -15 0 -20 -7 -7 -11 -9 -11 -9 -1 0 7 -6 12 -12 11 -36 -4 -56
3 -61 21 -3 13 -11 18 -20 14 -9 -3 -24 3 -34 13 -20 20 -73 27 -73 9 0 -6 -4
-5 -9 3 -5 8 -15 11 -23 8 -8 -3 -21 -1 -29 4 -10 6 -10 9 -1 9 6 0 12 7 12
16 0 8 -4 12 -10 9 -6 -3 -10 -2 -10 4 0 5 6 11 13 14 8 3 6 10 -8 21 -16 13
-17 15 -2 10 13 -5 17 -1 17 15 0 14 6 21 19 21 13 0 19 7 19 27 0 14 8 33 18
40 16 12 17 15 4 23 -10 7 -12 12 -4 18 13 8 15 42 2 42 -4 0 -11 19 -14 41
-5 29 -13 43 -25 46 -11 3 -19 13 -19 22 -1 14 -2 14 -14 -1 -16 -22 -27 -23
-20 -3 4 10 0 15 -10 15 -9 0 -19 7 -23 16 -3 8 -11 13 -18 10 -7 -2 -16 -2
-19 1 -8 8 -84 8 -92 0 -3 -3 -13 -3 -22 0 -12 5 -14 1 -10 -15 5 -17 -3 -26
-38 -47 -32 -19 -44 -32 -44 -49 0 -35 -43 -70 -75 -62 -20 5 -26 3 -22 -6 2
-7 12 -12 22 -10 10 2 14 -1 10 -7 -3 -6 -12 -11 -18 -11 -9 0 -13 -24 -13
-80 -1 -59 2 -80 12 -80 7 0 16 -5 19 -11 4 -6 0 -9 -10 -7 -10 2 -20 -2 -22
-9 -3 -8 11 -10 51 -7 46 4 55 2 50 -10 -3 -8 -12 -12 -20 -9 -8 3 -14 0 -14
-6 0 -6 9 -11 20 -11 21 0 27 -14 11 -25 -5 -3 -32 -7 -59 -9 -27 -3 -65 -11
-85 -20 -26 -11 -37 -11 -40 -3 -3 9 -8 9 -18 -1 -11 -10 -10 -12 4 -12 25 0
21 -15 -9 -29 -14 -6 -59 -33 -100 -60 -43 -29 -74 -44 -74 -36 0 7 6 16 13
18 9 4 8 8 -3 16 -10 7 -11 11 -2 11 6 0 12 7 12 15 0 8 -6 15 -12 15 -9 0 -8
4 2 10 13 9 13 11 0 20 -10 6 -11 10 -2 10 6 0 12 7 12 15 0 8 -6 15 -12 15
-9 0 -8 4 2 11 11 8 12 12 3 16 -7 2 -13 9 -13 14 0 6 5 7 10 4 6 -3 10 0 10
9 0 8 -6 17 -12 19 -10 4 -10 6 0 6 6 1 12 8 12 16 0 8 -6 15 -12 15 -9 0 -8
4 2 10 13 9 13 11 0 20 -10 6 -11 10 -2 10 6 0 12 7 12 15 0 8 -6 15 -12 15
-9 0 -8 4 2 10 13 9 13 11 0 20 -10 6 -11 10 -2 10 6 0 12 7 12 15 0 8 -6 15
-12 15 -9 0 -8 4 2 10 13 9 13 11 0 20 -10 6 -11 10 -2 10 6 0 12 7 12 15 0 8
-6 15 -12 15 -9 0 -8 4 2 11 11 8 12 12 3 16 -7 2 -13 9 -13 14 0 6 5 7 10 4
6 -3 10 1 10 9 0 9 -6 16 -12 16 -9 0 -8 4 2 11 11 8 12 12 3 16 -7 2 -13 9
-13 14 0 6 5 7 10 4 6 -3 10 1 10 10 0 10 -7 15 -17 13 -10 -2 -19 4 -19 12
-1 8 -2 19 -3 24 0 5 -7 3 -15 -3 -16 -14 -32 2 -20 20 3 6 0 15 -7 20 -10 6
-11 9 -1 9 6 0 12 7 12 15 0 17 -17 20 -22 4 -2 -6 -16 1 -32 16 -22 21 -31
24 -37 13 -6 -8 -9 4 -9 32 0 26 -5 51 -12 58 -9 9 -9 12 1 12 7 0 9 5 6 10
-5 8 -11 8 -20 0 -10 -8 -14 -7 -18 2 -4 10 -8 10 -16 -2 -9 -12 -12 -13 -20
-1 -6 10 -10 10 -16 1 -6 -9 -10 -9 -16 1 -8 12 -11 11 -19 -1 -9 -13 -11 -13
-20 0 -8 12 -11 13 -19 1 -7 -11 -9 -11 -14 0 -4 12 -7 11 -16 -1 -10 -13 -12
-13 -21 0 -8 12 -11 13 -19 1 -7 -11 -9 -11 -13 0 -4 12 -8 12 -20 1 -13 -10
-17 -10 -21 0 -4 10 -7 10 -15 -1 -7 -9 -11 -10 -17 -2 -5 9 -10 9 -20 1 -10
-8 -14 -7 -18 2 -4 10 -7 10 -15 -1 -8 -11 -10 -11 -14 0 -4 12 -8 12 -20 1
-13 -10 -17 -10 -21 0 -4 10 -7 10 -15 -1 -7 -9 -11 -10 -17 -2 -5 9 -10 9
-20 1 -10 -8 -15 -7 -19 2 -5 11 -7 11 -12 0 -5 -10 -9 -10 -21 -1 -11 10 -16
10 -23 0 -6 -11 -9 -11 -14 0 -5 11 -7 11 -12 1 -5 -10 -9 -10 -21 -1 -11 10
-16 10 -23 0 -6 -11 -9 -11 -14 0 -5 11 -7 11 -12 1 -5 -10 -9 -10 -21 -1 -11
10 -16 10 -23 0 -6 -11 -9 -11 -14 0 -5 11 -7 11 -12 1 -5 -10 -9 -10 -21 -1
-11 10 -16 10 -23 0 -6 -11 -8 -11 -12 0 -4 12 -8 12 -20 1 -13 -10 -17 -10
-21 0 -4 10 -7 10 -15 -1 -8 -11 -10 -11 -14 0 -4 12 -8 12 -20 1 -13 -10 -17
-10 -21 0 -4 10 -7 10 -15 -1 -8 -11 -10 -11 -14 0 -4 12 -8 12 -20 1 -13 -10
-17 -10 -21 0 -4 10 -7 10 -15 -1 -8 -11 -10 -11 -14 0 -4 12 -8 12 -20 1 -13
-10 -17 -10 -21 0 -4 10 -8 10 -16 -2 -7 -10 -11 -11 -11 -2 0 6 -7 12 -15 12
-8 0 -15 -6 -15 -12 0 -9 -4 -8 -11 2 -8 12 -12 12 -16 2 -4 -10 -8 -10 -20
-1 -11 10 -16 10 -23 0 -6 -11 -9 -11 -14 0 -5 11 -7 11 -12 1 -5 -10 -9 -10
-21 -1 -11 10 -16 10 -23 0 -6 -11 -9 -11 -14 0 -5 11 -7 11 -12 1 -5 -10 -9
-10 -21 -1 -11 10 -16 10 -23 0 -6 -11 -9 -11 -13 0 -4 12 -7 11 -16 -1 -10
-13 -12 -13 -21 0 -8 12 -11 13 -19 1 -7 -11 -9 -11 -13 0 -4 12 -8 12 -20 1
-13 -10 -17 -10 -21 0 -4 10 -7 10 -15 -1 -8 -11 -10 -11 -14 0 -4 12 -8 12
-20 1 -13 -10 -17 -10 -21 0 -4 10 -7 10 -15 -1 -8 -11 -10 -11 -14 0 -4 12
-7 12 -21 0 -11 -9 -17 -10 -17 -2 0 6 -4 11 -10 11 -5 0 -10 -6 -10 -14 0 -8
-8 -17 -19 -21 -15 -4 -18 -14 -16 -50 3 -43 -7 -59 -19 -32 -5 10 -7 10 -12
0 -3 -7 -10 -13 -15 -13 -6 0 -7 5 -4 10 3 6 -1 10 -9 10 -9 0 -16 -6 -16 -12
0 -9 -4 -8 -11 2 -8 11 -12 12 -16 3 -2 -7 -9 -13 -14 -13 -6 0 -7 5 -4 10 3
6 -1 10 -9 10 -9 0 -16 -6 -16 -12 0 -9 -4 -8 -11 2 -8 11 -12 12 -16 3 -2 -7
-9 -13 -14 -13 -6 0 -7 5 -4 10 3 6 -1 10 -9 10 -9 0 -16 -6 -16 -12 0 -9 -4
-8 -10 2 -9 13 -11 13 -20 0 -9 -13 -11 -13 -20 0 -8 12 -11 13 -19 1 -7 -11
-9 -11 -14 0 -4 12 -7 11 -16 -1 -10 -13 -12 -13 -21 0 -8 12 -11 13 -19 1 -7
-11 -9 -11 -14 0 -4 12 -7 11 -16 -1 -10 -13 -12 -13 -22 0 -8 11 -12 12 -16
3 -2 -7 -9 -13 -14 -13 -6 0 -7 5 -4 10 3 6 1 10 -4 10 -6 0 -11 -4 -11 -10 0
-5 -4 -10 -9 -10 -5 0 -7 9 -4 20 3 10 8 18 12 17 3 -1 6 3 6 8 0 6 -3 9 -7 8
-4 -2 -10 6 -13 17 -5 16 -15 20 -51 20 l-44 0 0 -45 c0 -25 -5 -45 -11 -45
-5 0 -7 5 -4 10 3 6 -1 10 -10 10 -9 0 -13 -4 -10 -10 9 -14 -4 -12 -19 3 -18
18 -39 58 -33 64 3 2 -3 13 -14 24 -10 10 -19 28 -19 38 0 11 -5 23 -11 27 -8
4 -7 9 2 15 11 7 11 9 -1 9 -9 0 -29 27 -48 65 -17 36 -36 65 -42 65 -6 0 3
-27 20 -60z m901 -227 c1 -10 3 -25 4 -33 1 -8 3 -21 4 -27 1 -15 71 -18 71
-3 0 6 -13 10 -30 10 -35 0 -41 19 -7 21 16 1 18 2 5 6 -21 5 -24 23 -4 23 8
0 16 5 18 10 2 7 13 6 30 -2 34 -16 35 -25 6 -31 -20 -4 -19 -4 5 -6 28 -1 36
-15 15 -25 -10 -5 -10 -7 -1 -12 8 -3 9 -11 3 -22 -5 -9 -11 -24 -13 -33 -3
-9 -15 -19 -26 -22 -16 -4 -26 3 -42 29 -25 42 -39 43 -39 5 0 -30 -24 -49
-36 -29 -4 7 -2 14 4 16 15 5 16 32 2 32 -5 0 -10 7 -10 15 0 8 5 15 10 15 14
0 12 27 -2 34 -10 5 -10 7 0 12 6 3 12 12 12 20 0 20 20 17 21 -3z m175 -6
c-5 -21 -3 -23 32 -18 34 4 35 5 12 11 l-25 7 26 11 c27 11 79 5 79 -9 0 -5
-8 -9 -17 -10 -14 0 -13 -2 4 -9 15 -6 20 -15 16 -29 -6 -24 -23 -28 -23 -6 0
8 -4 15 -9 15 -4 0 -6 -11 -3 -25 3 -17 11 -25 26 -25 21 -1 21 -1 2 -15 -11
-8 -14 -15 -8 -15 7 0 12 -5 12 -11 0 -7 -10 -9 -24 -5 -14 3 -36 2 -50 -4
-18 -7 -26 -6 -26 1 0 7 -11 9 -30 6 -16 -4 -30 -3 -30 2 0 13 27 21 58 17 15
-2 22 -2 16 1 -6 2 -11 15 -11 28 0 16 4 22 13 18 8 -3 14 -9 14 -15 0 -5 5
-6 10 -3 13 8 13 45 -1 45 -5 0 -7 -4 -4 -10 3 -5 0 -10 -9 -10 -8 0 -17 6
-19 13 -8 19 -28 -14 -21 -35 4 -13 0 -18 -14 -18 -26 0 -34 11 -20 27 9 11 9
16 -2 23 -11 7 -11 14 0 39 14 36 35 42 26 8z m387 9 c10 -8 15 -20 11 -30 -3
-9 -1 -16 5 -16 6 0 11 11 11 25 0 22 4 25 35 25 37 0 49 -16 15 -22 -29 -4
-30 -22 -2 -26 16 -3 22 -8 18 -19 -3 -8 -6 -30 -6 -49 0 -19 -4 -34 -10 -34
-5 0 -10 18 -10 40 0 22 -4 40 -10 40 -5 0 -10 -15 -10 -34 0 -39 -18 -57 -32
-32 -11 20 -28 21 -28 1 0 -16 -18 -20 -36 -7 -18 11 -14 62 5 63 15 1 15 2 0
6 -21 5 -20 53 1 70 19 15 21 15 43 -1z m248 4 c43 0 35 -20 -8 -22 -37 -1
-37 -1 -5 -5 31 -4 32 -6 32 -48 0 -24 3 -50 6 -59 5 -14 -5 -16 -76 -16 -71
0 -81 2 -76 16 3 9 6 35 6 59 0 42 1 44 33 48 31 4 31 4 -5 5 -21 1 -38 6 -38
11 0 10 64 20 88 14 8 -2 27 -3 43 -3z m83 -15 c4 -14 11 -25 17 -25 6 0 8 9
4 20 -6 18 -2 20 50 20 53 0 55 -1 45 -20 -8 -15 -8 -20 2 -20 9 0 9 -3 -2
-10 -12 -8 -13 -12 -2 -19 9 -5 12 -22 10 -46 l-4 -37 -52 -2 -52 -1 0 33 c0
20 -4 31 -10 27 -5 -3 -10 -17 -10 -31 0 -13 -6 -24 -13 -24 -11 0 -15 69 -8
148 2 21 19 13 25 -13z m189 -5 c4 -16 4 -37 1 -45 -4 -8 -1 -15 5 -15 6 0 11
17 11 40 l0 40 50 0 50 0 0 -50 c0 -38 -4 -50 -15 -50 -8 0 -15 -8 -14 -17 0
-11 3 -13 6 -5 8 19 23 14 23 -8 0 -14 -7 -20 -24 -20 -13 0 -26 5 -28 11 -3
8 -10 8 -25 -2 -12 -7 -26 -10 -30 -5 -4 4 0 12 10 17 23 13 22 29 -3 29 -16
0 -20 -7 -20 -30 0 -16 -4 -30 -10 -30 -5 0 -10 11 -10 24 0 13 -6 26 -12 29
-10 3 -10 9 0 27 12 19 12 24 0 31 -11 7 -11 11 0 17 7 5 12 13 11 18 -3 16 1
24 10 24 5 0 11 -13 14 -30z m194 14 c14 -13 14 -17 2 -25 -10 -6 -10 -9 -1
-9 6 0 12 -4 12 -10 0 -5 -7 -10 -15 -10 -8 0 -15 -4 -15 -10 0 -5 9 -10 20
-10 15 0 20 7 20 25 0 14 6 25 13 26 10 0 10 2 0 6 -7 2 -13 10 -13 17 0 7 14
10 40 8 40 -4 56 -21 23 -23 -17 -1 -17 -2 0 -6 12 -3 17 -15 17 -44 0 -44
-17 -53 -22 -12 -4 36 -38 46 -37 11 0 -21 1 -21 8 -4 5 14 10 16 15 7 4 -6 5
-18 2 -26 -3 -8 4 -21 16 -29 25 -18 16 -36 -10 -20 -12 8 -22 8 -34 0 -9 -5
-21 -7 -25 -2 -4 4 1 12 11 18 14 8 15 12 5 18 -8 6 -23 0 -42 -16 -16 -13
-33 -24 -38 -24 -15 0 -10 17 6 24 8 3 15 13 15 23 -1 17 -1 17 -11 0 -6 -9
-14 -15 -19 -12 -13 8 0 35 16 35 8 0 14 5 14 10 0 6 -9 10 -21 10 -15 0 -19
4 -15 16 3 9 6 22 6 30 0 23 18 16 23 -8 4 -20 4 -19 6 5 1 31 6 33 28 11z
m-792 -3 c-6 -5 -23 -11 -40 -14 l-30 -4 30 -1 c28 -2 30 -5 29 -39 -1 -35 -4
-38 -32 -41 -43 -4 -41 -22 3 -22 19 0 35 -4 35 -10 0 -5 -32 -9 -75 -8 -41 1
-75 5 -75 10 0 4 5 8 10 8 7 0 7 6 0 19 -5 11 -10 33 -10 50 0 28 3 31 33 32
l32 2 -30 4 c-16 3 -34 9 -39 14 -6 5 24 9 79 9 55 0 85 -4 80 -9z m-615 -104
c0 -31 6 -61 16 -75 l15 -22 774 0 c690 0 775 2 789 16 11 10 16 34 16 75 0
50 3 59 18 59 44 -1 43 31 43 -894 0 -648 -3 -882 -12 -892 -10 -12 -248 -14
-1540 -14 -1375 0 -1529 2 -1543 16 -14 14 -16 107 -16 880 0 577 3 872 10
885 10 19 29 19 720 19 l710 0 0 -53z m1738 -59 c9 -9 12 -195 12 -774 0 -680
-2 -764 -16 -778 -45 -46 -44 -66 -44 774 0 754 1 790 18 790 10 0 23 -5 30
-12z m499 -136 c17 -17 31 -22 46 -18 12 3 32 9 44 12 18 5 23 1 29 -20 7 -29
-9 -56 -34 -56 -12 0 -10 -6 8 -25 18 -19 24 -41 29 -95 6 -62 4 -75 -14 -100
-11 -16 -34 -37 -52 -45 -29 -14 -36 -14 -73 1 -50 20 -68 44 -62 84 4 26 14
36 61 60 64 33 64 40 0 10 -61 -27 -104 -26 -134 5 -43 42 -30 131 27 192 28
30 92 27 125 -5z m230 -316 c3 -2 -12 -63 -33 -135 l-38 -131 -122 0 -122 0
-45 134 -45 135 29 6 c25 6 37 1 74 -34 37 -34 52 -41 85 -41 48 0 84 17 123
58 25 26 33 29 59 21 17 -4 33 -10 35 -13z m76 -109 c-55 -243 -35 -482 51
-610 l24 -35 -47 -6 c-124 -16 -454 -26 -559 -18 -110 9 -132 16 -132 47 0 6
4 4 8 -3 20 -30 83 90 106 201 25 122 16 369 -19 492 -5 16 1 23 28 33 18 7
36 12 39 12 4 0 27 -63 53 -140 l47 -141 131 3 131 3 27 90 c15 50 35 115 44
147 l16 56 38 -15 37 -15 -23 -101z m98 64 c30 -10 89 -33 131 -50 l77 -32
-48 -92 c-59 -116 -84 -196 -84 -269 l0 -57 -46 24 c-25 12 -70 42 -98 66 -51
41 -53 44 -53 93 0 94 43 336 60 336 4 0 31 -8 61 -19z m-661 -73 c21 -122 24
-322 6 -406 -15 -72 -62 -190 -71 -180 -3 3 4 30 14 61 24 69 61 197 56 197
-1 0 -22 -30 -46 -67 -24 -37 -68 -85 -99 -110 l-55 -43 -5 62 -4 63 -6 -70
c-3 -38 -6 46 -7 188 l-3 258 92 59 c51 33 98 60 104 60 6 0 17 -33 24 -72z"/>
<path d="M472 1914 c-15 -11 -22 -25 -22 -50 0 -30 -3 -34 -25 -34 -14 0 -37
-11 -50 -25 -20 -20 -25 -34 -25 -78 0 -67 26 -107 70 -107 25 0 29 -4 33 -32
2 -18 3 -2 1 36 -1 37 0 74 3 82 4 10 25 14 82 14 68 0 80 3 99 23 12 13 22
35 22 49 0 21 6 28 28 31 26 4 25 4 -5 6 -29 1 -32 4 -35 38 -2 28 -9 41 -28
50 -35 18 -121 16 -148 -3z"/>
<path d="M1580 1744 l0 -185 37 3 37 3 -3 60 c-4 107 37 166 83 119 12 -12 16
-36 16 -100 l0 -85 38 3 37 3 3 60 c4 80 -5 139 -27 166 -22 28 -91 31 -118 6
-21 -18 -34 -22 -32 -9 1 4 1 37 0 75 l-1 67 -35 0 -35 0 0 -186z"/>
<path d="M810 1735 l0 -175 40 0 40 0 0 59 0 59 67 7 c87 9 123 41 123 107 0
86 -50 118 -185 118 l-85 0 0 -175z"/>
<path d="M1438 1903 c-26 -4 -28 -8 -28 -49 0 -37 -3 -44 -20 -44 -16 0 -20
-7 -20 -30 0 -23 4 -30 20 -30 18 0 20 -7 20 -73 0 -97 14 -117 80 -117 27 0
51 4 54 9 10 16 -9 46 -29 46 -18 0 -20 8 -23 68 -3 66 -3 67 23 67 21 0 25 5
25 30 0 25 -4 30 -25 30 -23 0 -25 3 -25 50 0 34 -4 50 -12 49 -7 -1 -25 -4
-40 -6z"/>
<path d="M2555 1825 c-32 -31 -31 -43 1 -51 19 -5 30 -1 46 15 22 25 46 24 61
-1 15 -23 -8 -48 -44 -48 -24 0 -29 -4 -29 -25 0 -19 5 -25 23 -25 35 0 59
-22 55 -51 -4 -33 -50 -39 -71 -9 -11 16 -21 19 -41 14 -45 -11 -25 -57 32
-75 70 -21 152 19 152 74 0 10 -12 31 -28 46 l-27 28 22 17 c29 21 30 69 3 96
-31 31 -123 28 -155 -5z"/>
<path d="M2931 1826 c-13 -14 -36 -30 -52 -36 -22 -10 -29 -19 -29 -41 0 -31
11 -31 58 -1 l22 14 0 -96 0 -96 35 0 35 0 0 140 c0 140 0 140 -23 140 -13 0
-34 -11 -46 -24z"/>
<path d="M3109 1824 c-13 -14 -36 -32 -51 -40 -19 -10 -28 -22 -28 -39 0 -30
1 -30 50 -5 l40 20 0 -95 0 -95 30 0 30 0 0 140 c0 140 0 140 -23 140 -13 0
-34 -12 -48 -26z"/>
<path d="M1953 1810 c-58 -14 -93 -60 -93 -125 0 -79 51 -125 137 -125 102 0
156 82 117 179 -23 59 -90 89 -161 71z"/>
<path d="M2278 1801 c-30 -15 -38 -16 -38 -5 0 10 -12 14 -40 14 l-40 0 0
-125 0 -125 40 0 40 0 0 85 c0 79 2 86 24 100 19 13 29 14 45 6 18 -10 21 -23
23 -99 l3 -87 38 -3 37 -3 0 100 c0 89 -2 103 -22 125 -32 35 -66 40 -110 17z"/>
<path d="M1100 1800 c0 -5 21 -57 47 -115 38 -88 45 -111 37 -133 -7 -21 -17
-28 -45 -30 -33 -3 -35 -5 -31 -32 4 -27 8 -30 43 -30 64 0 90 34 154 198 30
78 55 144 55 147 0 3 -17 5 -38 5 l-38 0 -26 -87 -25 -88 -29 88 -28 87 -38 0
c-21 0 -38 -4 -38 -10z"/>
<path d="M766 1325 c-3 -8 -12 -12 -21 -9 -11 5 -15 -1 -15 -20 0 -20 5 -26
21 -26 18 0 20 -5 17 -47 -3 -41 -6 -48 -25 -51 -34 -5 -30 -40 5 -45 l27 -3
-32 -13 c-37 -15 -39 -19 -18 -47 8 -10 15 -27 15 -36 0 -16 13 -18 140 -18
133 0 140 1 140 20 0 18 -7 20 -55 20 -62 0 -74 15 -17 22 23 3 46 -1 60 -10
20 -13 25 -13 33 -1 16 25 10 39 -23 53 l-33 14 33 1 c25 1 32 5 32 21 0 15
-7 20 -25 20 -23 0 -25 3 -25 50 0 44 3 50 21 50 15 0 20 5 17 23 -2 14 -9 21
-21 21 -9 -1 -17 4 -17 12 0 16 -56 20 -62 5 -5 -15 -111 -17 -116 -3 -5 17
-49 15 -56 -3z"/>
<path d="M1280 1280 c0 -33 -4 -60 -10 -60 -5 0 -10 21 -10 46 0 41 -2 45 -22
42 -21 -3 -23 -9 -26 -70 l-3 -68 36 0 35 0 0 -49 c0 -28 -4 -53 -10 -56 -6
-4 -10 12 -10 39 0 42 -2 46 -25 46 -24 0 -25 -2 -25 -65 l0 -65 70 0 c40 0
70 -4 70 -10 0 -5 11 -10 25 -10 24 0 25 2 25 75 0 73 -1 75 -25 75 -22 0 -25
-4 -25 -40 0 -22 -4 -40 -10 -40 -5 0 -10 23 -10 50 0 49 1 50 30 50 l30 0 0
70 c0 63 -2 70 -20 70 -17 0 -20 -7 -20 -45 0 -25 -4 -45 -10 -45 -6 0 -10 27
-10 60 0 57 -1 60 -25 60 -24 0 -25 -3 -25 -60z"/>
<path d="M1531 1323 l-22 -18 25 -24 c14 -14 26 -34 26 -45 0 -36 -41 -105
-86 -145 -45 -39 -45 -40 -29 -65 l17 -26 30 21 c33 24 97 107 98 127 0 24 15
12 38 -32 13 -24 39 -58 58 -77 l34 -33 24 23 24 23 -43 42 c-23 24 -61 79
-84 123 -23 44 -52 90 -65 102 -22 21 -24 21 -45 4z"/>
<path d="M2832 1287 c-24 -36 -31 -58 -27 -75 5 -19 8 -22 20 -12 13 11 15 5
15 -35 l0 -47 50 7 c34 5 50 3 50 -4 0 -7 -25 -11 -65 -11 -58 0 -65 -2 -65
-20 0 -17 7 -20 43 -21 l42 -1 -48 -15 c-42 -13 -46 -16 -36 -34 11 -21 20
-20 88 7 42 18 41 18 41 -6 0 -16 7 -20 30 -20 24 0 30 4 30 21 0 16 4 19 18
14 9 -4 36 -13 59 -21 39 -12 44 -11 53 6 9 17 4 21 -37 33 l-48 15 43 1 c35
1 42 4 42 21 0 18 -7 20 -65 20 -83 0 -85 18 -2 22 47 2 62 7 62 18 0 11 -15
17 -55 21 l-55 6 48 1 c34 2 47 6 47 17 0 11 -12 15 -46 15 -27 0 -43 4 -39
10 3 6 24 10 46 10 27 0 39 4 39 14 0 11 -14 16 -47 19 l-48 3 53 2 c45 2 52
5 52 22 0 17 -7 20 -45 20 -31 0 -47 5 -51 15 -4 9 -19 15 -36 15 -23 0 -29
-4 -24 -15 4 -11 -2 -15 -24 -15 -22 0 -28 4 -24 15 5 11 -1 15 -22 14 -24 0
-35 -10 -62 -52z"/>
<path d="M374 1319 c-11 -18 9 -28 66 -32 55 -3 54 -3 -12 -5 l-68 -2 0 -40
c0 -36 3 -40 24 -40 18 0 25 6 28 23 3 19 9 22 43 22 34 0 40 -3 41 -22 1 -19
-3 -21 -31 -16 -19 3 -35 0 -39 -6 -5 -7 3 -11 20 -11 39 0 23 -11 -36 -24
-28 -6 -51 -15 -50 -19 0 -4 0 -14 0 -22 0 -8 6 -15 14 -15 8 0 16 -7 20 -15
3 -8 13 -15 22 -15 14 0 14 -3 4 -15 -7 -9 -11 -17 -9 -18 6 -5 165 -47 177
-47 15 0 24 32 11 41 -8 4 -1 13 20 23 17 9 31 23 31 31 0 8 6 15 14 15 13 0
26 20 26 40 0 4 -19 11 -42 14 -51 8 -86 26 -50 26 12 0 22 5 22 11 0 7 -14
10 -35 7 -31 -4 -35 -1 -35 19 0 20 5 23 40 23 36 0 40 -2 40 -25 0 -20 5 -25
25 -25 23 0 25 4 25 40 l0 40 -67 2 -68 2 63 3 c54 3 62 7 62 23 0 19 -8 20
-144 20 -94 0 -147 -4 -152 -11z"/>
<path d="M1075 1298 c2 -13 8 -22 14 -20 15 3 14 -22 -4 -65 -17 -41 -19 -79
-5 -88 6 -3 10 -31 10 -61 0 -51 1 -54 26 -54 14 0 23 4 19 10 -3 6 -1 10 4
10 6 0 11 -4 11 -10 0 -5 9 -10 20 -10 18 0 20 7 20 68 0 37 3 84 6 105 6 36
6 37 -25 37 -35 0 -35 -1 -21 34 6 16 17 26 30 26 13 0 20 7 20 20 0 18 -7 20
-63 20 -60 0 -64 -1 -62 -22z"/>
<path d="M1910 1290 l0 -30 75 0 76 0 -3 -97 -3 -98 -44 -3 c-39 -3 -42 -5
-37 -25 3 -12 6 -25 6 -30 0 -14 115 5 128 21 8 11 12 58 12 154 l0 138 -105
0 -105 0 0 -30z"/>
<path d="M2164 1271 c-2 -2 -4 -35 -4 -73 l0 -68 58 2 57 3 3 -32 c4 -44 -28
-63 -58 -33 -36 36 -82 21 -61 -19 17 -30 76 -46 122 -32 44 13 59 35 59 84 0
50 -36 80 -89 75 -39 -3 -41 -2 -41 24 0 28 1 28 61 28 56 0 60 2 57 21 -3 19
-10 21 -81 22 -43 1 -81 0 -83 -2z"/>
<path d="M2417 1269 c-45 -26 -64 -148 -32 -209 26 -51 112 -62 150 -20 44 48
38 176 -10 217 -28 24 -77 30 -108 12z"/>
<path d="M2627 1260 c-51 -40 -61 -153 -20 -209 41 -54 128 -49 158 10 31 59
11 184 -33 208 -32 17 -77 13 -105 -9z"/>
<path d="M800 760 c0 -5 -13 -10 -30 -10 -27 0 -30 -3 -30 -32 0 -18 -4 -50
-9 -71 -13 -54 5 -56 21 -2 10 35 16 43 28 35 12 -8 11 -13 -8 -39 -12 -16
-18 -33 -13 -36 5 -3 17 5 25 17 9 12 19 18 23 14 4 -4 1 -11 -7 -16 -21 -13
-5 -24 16 -12 12 7 25 7 37 0 10 -5 22 -6 25 -2 4 4 1 9 -5 11 -8 3 -11 14 -7
29 5 21 3 24 -22 25 -27 2 -27 2 -4 6 48 8 53 12 35 29 -15 15 -14 17 2 30 16
12 15 13 -14 14 -17 0 -35 5 -38 10 -3 6 -10 10 -16 10 -5 0 -9 -4 -9 -10z"/>
<path d="M2640 760 c-25 -4 -40 -8 -35 -9 6 -1 3 -6 -5 -12 -9 -7 -11 -12 -4
-15 7 -3 8 -20 4 -49 -7 -43 -6 -44 24 -48 28 -3 27 -4 -7 -5 -73 -3 -26 -22
54 -22 46 0 79 4 79 10 0 6 -17 11 -37 12 -35 1 -36 2 -7 5 30 4 31 5 24 49
-4 24 -3 44 2 44 4 0 8 5 8 10 0 6 -15 11 -32 11 -31 2 -31 2 -5 6 15 2 27 9
27 14 0 10 -21 10 -90 -1z"/>
<path d="M4093 2480 c-1 -11 2 -18 6 -16 12 8 32 -41 25 -59 -4 -9 0 -15 9
-15 16 0 33 -35 28 -59 -1 -7 2 -10 7 -7 12 7 33 -40 26 -59 -4 -9 0 -15 9
-15 14 0 31 -34 28 -54 -1 -4 6 -14 15 -20 9 -7 17 -25 17 -39 0 -16 5 -27 13
-27 8 0 14 -4 14 -10 0 -6 -5 -9 -11 -8 -6 2 -14 -3 -16 -10 -3 -8 3 -11 19
-10 19 3 22 -1 20 -21 -2 -15 0 -21 7 -16 12 7 32 -34 23 -49 -3 -5 3 -15 13
-23 17 -12 17 -13 2 -13 -9 0 -17 -5 -17 -11 0 -6 9 -9 20 -6 16 4 20 0 20
-20 0 -13 4 -22 9 -19 11 7 32 -40 25 -58 -3 -8 2 -16 13 -19 16 -4 16 -5 1
-6 -10 0 -18 -6 -18 -12 0 -6 9 -9 20 -6 15 4 20 0 20 -14 0 -10 9 -28 21 -40
13 -13 18 -27 14 -40 -4 -13 -2 -19 9 -19 26 0 19 22 -43 150 -37 75 -54 119
-44 116 8 -3 20 -6 26 -6 7 0 6 -4 -3 -10 -22 -14 -5 -23 19 -10 25 13 26 8 6
-29 -8 -16 -12 -31 -8 -34 8 -8 63 21 63 34 0 6 -7 6 -20 -1 -20 -11 -20 -10
-3 25 19 41 14 51 -19 34 -22 -12 -23 -11 -5 8 21 24 22 47 1 67 -22 22 -41
20 -69 -8 l-23 -23 -124 253 c-67 140 -128 254 -133 254 -6 0 -11 -9 -12 -20z"/>
</g>
</svg>
